<svg width="2760" height="1162" viewBox="0 0 2760 1162" fill="none" xmlns="http://www.w3.org/2000/svg">
<rect x="181" y="187" width="132" height="886" fill="#D52522"/>
<rect x="1557.82" y="57.512" width="132" height="769.822" transform="rotate(52.6321 1557.82 57.512)" fill="#D52522"/>
<rect x="2017.15" y="519" width="132" height="886" transform="rotate(52.6321 2017.15 519)" fill="#D52522"/>
<rect x="1296.57" y="450.318" width="132" height="494.961" transform="rotate(-37.9963 1296.57 450.318)" fill="#D52522"/>
<rect x="940" y="187" width="132" height="886" fill="#D52522"/>
<rect y="338" width="923" height="136" fill="#D52522"/>
<path d="M923 1073H360V522H923V1073ZM491 630V951H795V630H491Z" fill="#D52522"/>
<path d="M2043.37 1159.23L1816 861.521L2107.36 639L2334.73 936.706L2043.37 1159.23ZM2103.16 751.886L1933.42 881.522L2056.19 1042.27L2225.93 912.637L2103.16 751.886Z" fill="#D52522"/>
<path d="M2350.95 928.782L2032 511.157L2122.5 442.042L2368.94 764.719L2607.05 582.865L2360.61 260.188L2440.73 199.002L2759.68 616.627L2350.95 928.782ZM2122.5 442.042L2122.5 442.041L2360.61 260.186L2360.61 260.188L2122.5 442.042Z" fill="#D52522"/>
<path d="M1719.3 6.20192C1719.23 6.14622 1719.2 6.11803 1719.2 6.11803C1719.2 6.11803 1719.23 6.14618 1719.3 6.20192C1724.81 10.6445 1947.97 190.101 2088.28 200.35C2199.6 208.482 2353.57 137.637 2424.31 101.295C2447.26 88.2438 2462.65 80.6501 2462.65 80.6501C2462.65 80.6501 2448.24 88.9972 2424.31 101.295C2354.34 141.083 2214.15 231.596 2225.85 312.296C2234.24 370.165 2339.52 449.355 2424.95 504.834C2489.48 539.745 2535.09 571.042 2535.09 571.042C2535.09 571.042 2484.91 543.78 2424.95 504.834C2340.06 458.915 2222.45 406.744 2132.82 411.319C1984.79 418.876 1788.18 619.296 1788.18 619.296C1788.18 619.296 1915.02 474.542 1863.89 417.847C1798.6 345.461 1483.55 292.359 1483.55 292.359C1483.55 292.359 1916.67 351.673 1967.73 290.004C2008.65 240.589 1725.52 11.2278 1719.3 6.20192Z" fill="#D52522"/>
</svg>
